<?xml version="1.0" encoding="utf-8"?>
<!-- Generator: Adobe Illustrator 23.0.2, SVG Export Plug-In . SVG Version: 6.00 Build 0)  -->
<svg version="1.1" id="Ebene_1" xmlns="http://www.w3.org/2000/svg" xmlns:xlink="http://www.w3.org/1999/xlink" x="0px" y="0px"
	 viewBox="0 0 128.8 50" style="enable-background:new 0 0 128.8 50;" xml:space="preserve">
<style type="text/css">
	.st0{fill:#FFFFFF;}
	.st1{fill:#5CDF26;}
</style>
<title>byterunner_logo</title>
<path class="st0" d="M25.5,35.5c-0.1,2.1-1.8,3.9-3.9,4V50h-3.1V39.5c-2.1-0.2-3.8-1.9-3.9-4l0,0V9.4h3.5v26l0,0
	c0,0.7,0.6,1.3,1.3,1.3h1.3c0.7,0,1.3-0.6,1.3-1.3l0,0v-26h3.5L25.5,35.5z"/>
<path class="st1" d="M74,35.4v0.1c-0.1,2.1-1.8,3.9-3.9,4l-3.1,0c-2.1-0.2-3.8-1.9-3.9-4l0,0V9.4h3.5v26l0,0c0,0.7,0.6,1.3,1.3,1.3
	h1.3c0.7,0,1.3-0.6,1.3-1.3l0,0v-26h3.5L74,35.4z"/>
<path class="st0" d="M32.9,12.2h2.6V9.4h-2.6V2.1h-3.5v33l0,0c0,2.4,1.9,4.3,4.3,4.4h2.2v-3h-1.8c-0.7-0.1-1.2-0.7-1.2-1.4l0,0
	L32.9,12.2z"/>
<path class="st0" d="M7.2,35.5L7.2,35.5c0,0.7-0.6,1.2-1.2,1.3H3.5V14.1c0.1-0.6,0.6-1.1,1.2-1.1H6c0.6,0,1.1,0.4,1.2,1V35.5z
	 M10.8,14.3L10.8,14.3c0-2.3-1.9-4.2-4.2-4.2H4.3c-0.2,0-0.5,0-0.7,0.1V0H0v39.6h2c0.1,0,0.3,0,0.4,0h4.1c2.3,0,4.3-1.9,4.3-4.2l0,0
	L10.8,14.3z"/>
<path class="st0" d="M42,21.2v-7.7c0-0.7,0.6-1.2,1.3-1.2h1.2c0.7,0,1.3,0.6,1.3,1.3c0,0,0,0,0,0l0,0v7.7H42z M49.3,35.1L49.3,35.1
	v-6h-3.5v6c0,0.7-0.5,1.3-1.2,1.4h-1.4c-0.6-0.1-1.1-0.6-1.2-1.2V24h7.2V13.7l0,0c0-2.4-1.9-4.3-4.3-4.3h-2.2
	c-2.3,0-4.1,1.8-4.2,4.1l0,0v0.1l0,0V35l0,0c0,0.1,0,0.2,0,0.4v0.1l0,0c0.2,2.2,2,4,4.2,4.1h2.3c2.2-0.1,4-1.8,4.2-4l0,0v-0.3
	C49.3,35.2,49.3,35.1,49.3,35.1"/>
<path class="st1" d="M60,9.4h-2.2c-2.3,0-4.1,1.8-4.2,4.1l0,0v0.1l0,0c0,0,0,26,0,26h3.5c0,0,0-3.7,0-4.3V24L57,21.2v-7.7
	c0-0.7,0.6-1.2,1.3-1.2H60V9.4z"/>
<path class="st1" d="M128.8,9.4h-2.2c-2.3,0-4.1,1.8-4.2,4.1l0,0v0.1l0,0c0,0,0,26,0,26h3.5c0,0,0-3.7,0-4.3V24l-0.1-2.8v-7.7
	c0-0.7,0.6-1.2,1.3-1.2h1.7V9.4z"/>
<path class="st1" d="M111.5,21.2v-7.7c0-0.7,0.6-1.2,1.3-1.2h1.2c0.7,0,1.3,0.6,1.3,1.3c0,0,0,0,0,0l0,0v7.7H111.5z M118.8,35.1
	L118.8,35.1v-6h-3.5v6c0,0.7-0.5,1.3-1.2,1.4h-1.4c-0.6-0.1-1.1-0.6-1.2-1.2V24h7.2V13.7l0,0c0-2.4-1.9-4.3-4.3-4.3h-2.2
	c-2.3,0-4.1,1.8-4.2,4.1l0,0v0.1l0,0V35l0,0c0,0.1,0,0.2,0,0.4v0.1l0,0c0.2,2.2,2,4,4.2,4.1h2.3c2.2-0.1,4-1.8,4.2-4l0,0v-0.3
	C118.8,35.2,118.8,35.1,118.8,35.1"/>
<path class="st1" d="M78.1,9.4h4.1l3.1,0c2.1,0.2,3.8,1.9,3.9,4l0,0v26.1h-3.5v-26l0,0c0-0.7-0.6-1.3-1.3-1.3h-2.6l0,1.3l0,0v26
	h-3.5L78.1,9.4z"/>
<path class="st1" d="M93.1,9.4h4.1l3.1,0c2.1,0.2,3.8,1.9,3.9,4l0,0v26.1h-3.5v-26l0,0c0-0.7-0.6-1.3-1.3-1.3h-2.6l0,1.3l0,0v26
	h-3.5L93.1,9.4z"/>
</svg>
